<mxfile host="app.diagrams.net" modified="2021-07-15T12:20:13.316Z" agent="5.0 (Macintosh; Intel Mac OS X 10_15_6) AppleWebKit/605.1.15 (KHTML, like Gecko) Version/14.0.2 Safari/605.1.15" etag="a45mgQ9DsscdS2GFvib_" version="14.8.5" type="github">
  <diagram id="f2aenbFZXy3KyknoxSXi" name="Page-1">
    <mxGraphModel dx="705" dy="613" grid="1" gridSize="10" guides="1" tooltips="1" connect="1" arrows="1" fold="1" page="1" pageScale="1" pageWidth="827" pageHeight="1169" math="0" shadow="0">
      <root>
        <mxCell id="0" />
        <mxCell id="1" parent="0" />
        <mxCell id="ICOZAlTJIjytX9kaOE55-1" value="" style="rounded=0;whiteSpace=wrap;html=1;strokeColor=#B3B3B3;strokeWidth=2;" parent="1" vertex="1">
          <mxGeometry x="160" y="120" width="40" height="40" as="geometry" />
        </mxCell>
        <mxCell id="ICOZAlTJIjytX9kaOE55-2" value="" style="rounded=0;whiteSpace=wrap;html=1;strokeColor=#B3B3B3;strokeWidth=2;fillColor=#FFD966;" parent="1" vertex="1">
          <mxGeometry x="200" y="120" width="40" height="40" as="geometry" />
        </mxCell>
        <mxCell id="ICOZAlTJIjytX9kaOE55-3" value="" style="rounded=0;whiteSpace=wrap;html=1;strokeColor=#B3B3B3;strokeWidth=2;fillColor=#3399FF;" parent="1" vertex="1">
          <mxGeometry x="240" y="120" width="40" height="40" as="geometry" />
        </mxCell>
        <mxCell id="ICOZAlTJIjytX9kaOE55-4" value="&lt;font style=&quot;font-size: 16px&quot;&gt;1&lt;/font&gt;" style="rounded=0;whiteSpace=wrap;html=1;strokeColor=#B3B3B3;strokeWidth=2;fillColor=#D1E8BA;" parent="1" vertex="1">
          <mxGeometry x="280" y="120" width="40" height="40" as="geometry" />
        </mxCell>
        <mxCell id="ICOZAlTJIjytX9kaOE55-5" value="" style="rounded=0;whiteSpace=wrap;html=1;strokeColor=#B3B3B3;strokeWidth=2;" parent="1" vertex="1">
          <mxGeometry x="320" y="120" width="40" height="40" as="geometry" />
        </mxCell>
        <mxCell id="ICOZAlTJIjytX9kaOE55-6" value="" style="rounded=0;whiteSpace=wrap;html=1;strokeColor=#B3B3B3;strokeWidth=2;" parent="1" vertex="1">
          <mxGeometry x="360" y="120" width="40" height="40" as="geometry" />
        </mxCell>
        <mxCell id="ICOZAlTJIjytX9kaOE55-7" value="" style="rounded=0;whiteSpace=wrap;html=1;strokeColor=#B3B3B3;strokeWidth=2;" parent="1" vertex="1">
          <mxGeometry x="400" y="120" width="40" height="40" as="geometry" />
        </mxCell>
        <mxCell id="ICOZAlTJIjytX9kaOE55-8" value="" style="rounded=0;whiteSpace=wrap;html=1;strokeColor=#B3B3B3;strokeWidth=2;" parent="1" vertex="1">
          <mxGeometry x="240" y="200" width="40" height="40" as="geometry" />
        </mxCell>
        <mxCell id="ICOZAlTJIjytX9kaOE55-9" value="" style="rounded=0;whiteSpace=wrap;html=1;strokeColor=#B3B3B3;strokeWidth=2;fillColor=#3399FF;" parent="1" vertex="1">
          <mxGeometry x="280" y="200" width="40" height="40" as="geometry" />
        </mxCell>
        <mxCell id="ICOZAlTJIjytX9kaOE55-10" value="" style="rounded=0;whiteSpace=wrap;html=1;strokeColor=#B3B3B3;strokeWidth=2;" parent="1" vertex="1">
          <mxGeometry x="320" y="200" width="40" height="40" as="geometry" />
        </mxCell>
        <mxCell id="ICOZAlTJIjytX9kaOE55-11" value="" style="rounded=0;whiteSpace=wrap;html=1;strokeColor=#B3B3B3;strokeWidth=2;" parent="1" vertex="1">
          <mxGeometry x="360" y="200" width="40" height="40" as="geometry" />
        </mxCell>
        <mxCell id="ICOZAlTJIjytX9kaOE55-12" value="" style="rounded=0;whiteSpace=wrap;html=1;strokeColor=#B3B3B3;strokeWidth=2;" parent="1" vertex="1">
          <mxGeometry x="400" y="200" width="40" height="40" as="geometry" />
        </mxCell>
        <mxCell id="ICOZAlTJIjytX9kaOE55-13" value="" style="rounded=0;whiteSpace=wrap;html=1;strokeColor=#B3B3B3;strokeWidth=2;" parent="1" vertex="1">
          <mxGeometry x="200" y="160" width="40" height="40" as="geometry" />
        </mxCell>
        <mxCell id="ICOZAlTJIjytX9kaOE55-14" value="" style="rounded=0;whiteSpace=wrap;html=1;strokeColor=#B3B3B3;strokeWidth=2;fillColor=#FFD966;" parent="1" vertex="1">
          <mxGeometry x="240" y="160" width="40" height="40" as="geometry" />
        </mxCell>
        <mxCell id="ICOZAlTJIjytX9kaOE55-15" value="" style="rounded=0;whiteSpace=wrap;html=1;strokeColor=#B3B3B3;strokeWidth=2;" parent="1" vertex="1">
          <mxGeometry x="280" y="160" width="40" height="40" as="geometry" />
        </mxCell>
        <mxCell id="ICOZAlTJIjytX9kaOE55-16" value="" style="rounded=0;whiteSpace=wrap;html=1;strokeColor=#B3B3B3;strokeWidth=2;" parent="1" vertex="1">
          <mxGeometry x="320" y="160" width="40" height="40" as="geometry" />
        </mxCell>
        <mxCell id="ICOZAlTJIjytX9kaOE55-17" value="" style="rounded=0;whiteSpace=wrap;html=1;strokeColor=#B3B3B3;strokeWidth=2;" parent="1" vertex="1">
          <mxGeometry x="360" y="160" width="40" height="40" as="geometry" />
        </mxCell>
        <mxCell id="ICOZAlTJIjytX9kaOE55-18" value="" style="rounded=0;whiteSpace=wrap;html=1;strokeColor=#B3B3B3;strokeWidth=2;" parent="1" vertex="1">
          <mxGeometry x="400" y="160" width="40" height="40" as="geometry" />
        </mxCell>
        <mxCell id="ICOZAlTJIjytX9kaOE55-19" value="&lt;font style=&quot;font-size: 16px&quot;&gt;1&lt;/font&gt;" style="rounded=0;whiteSpace=wrap;html=1;strokeColor=#B3B3B3;strokeWidth=2;fillColor=#D1E8BA;" parent="1" vertex="1">
          <mxGeometry x="320" y="280" width="40" height="40" as="geometry" />
        </mxCell>
        <mxCell id="ICOZAlTJIjytX9kaOE55-20" value="" style="rounded=0;whiteSpace=wrap;html=1;strokeColor=#B3B3B3;strokeWidth=2;fillColor=#FFFFFF;" parent="1" vertex="1">
          <mxGeometry x="360" y="280" width="40" height="40" as="geometry" />
        </mxCell>
        <mxCell id="ICOZAlTJIjytX9kaOE55-21" value="" style="rounded=0;whiteSpace=wrap;html=1;strokeColor=#B3B3B3;strokeWidth=2;" parent="1" vertex="1">
          <mxGeometry x="400" y="280" width="40" height="40" as="geometry" />
        </mxCell>
        <mxCell id="ICOZAlTJIjytX9kaOE55-23" value="" style="rounded=0;whiteSpace=wrap;html=1;strokeColor=#B3B3B3;strokeWidth=2;" parent="1" vertex="1">
          <mxGeometry x="400" y="320" width="40" height="40" as="geometry" />
        </mxCell>
        <mxCell id="ICOZAlTJIjytX9kaOE55-24" value="&lt;font style=&quot;font-size: 16px&quot;&gt;1&lt;/font&gt;" style="rounded=0;whiteSpace=wrap;html=1;strokeColor=#B3B3B3;strokeWidth=2;fillColor=#D1E8BA;" parent="1" vertex="1">
          <mxGeometry x="360" y="320" width="40" height="40" as="geometry" />
        </mxCell>
        <mxCell id="ICOZAlTJIjytX9kaOE55-25" value="&lt;font style=&quot;font-size: 18px&quot; color=&quot;#1a1a1a&quot;&gt;羽&lt;/font&gt;" style="text;html=1;strokeColor=none;fillColor=none;align=center;verticalAlign=middle;whiteSpace=wrap;rounded=0;" parent="1" vertex="1">
          <mxGeometry x="160" y="90" width="40" height="20" as="geometry" />
        </mxCell>
        <mxCell id="ICOZAlTJIjytX9kaOE55-26" value="&lt;font style=&quot;font-size: 18px&quot; color=&quot;#1a1a1a&quot;&gt;毛&lt;/font&gt;" style="text;html=1;strokeColor=none;fillColor=none;align=center;verticalAlign=middle;whiteSpace=wrap;rounded=0;" parent="1" vertex="1">
          <mxGeometry x="200" y="90" width="40" height="20" as="geometry" />
        </mxCell>
        <mxCell id="ICOZAlTJIjytX9kaOE55-27" value="&lt;font style=&quot;font-size: 18px&quot; color=&quot;#1a1a1a&quot;&gt;球&lt;/font&gt;" style="text;html=1;strokeColor=none;fillColor=none;align=center;verticalAlign=middle;whiteSpace=wrap;rounded=0;" parent="1" vertex="1">
          <mxGeometry x="240" y="90" width="40" height="20" as="geometry" />
        </mxCell>
        <mxCell id="ICOZAlTJIjytX9kaOE55-29" value="&lt;font style=&quot;font-size: 18px&quot; color=&quot;#1a1a1a&quot;&gt;拍&lt;/font&gt;" style="text;html=1;strokeColor=none;fillColor=none;align=center;verticalAlign=middle;whiteSpace=wrap;rounded=0;" parent="1" vertex="1">
          <mxGeometry x="280" y="90" width="40" height="20" as="geometry" />
        </mxCell>
        <mxCell id="ICOZAlTJIjytX9kaOE55-30" value="&lt;font style=&quot;font-size: 18px&quot; color=&quot;#1a1a1a&quot;&gt;卖&lt;/font&gt;" style="text;html=1;strokeColor=none;fillColor=none;align=center;verticalAlign=middle;whiteSpace=wrap;rounded=0;" parent="1" vertex="1">
          <mxGeometry x="320" y="90" width="40" height="20" as="geometry" />
        </mxCell>
        <mxCell id="ICOZAlTJIjytX9kaOE55-31" value="&lt;font style=&quot;font-size: 18px&quot; color=&quot;#1a1a1a&quot;&gt;光&lt;/font&gt;" style="text;html=1;strokeColor=none;fillColor=none;align=center;verticalAlign=middle;whiteSpace=wrap;rounded=0;" parent="1" vertex="1">
          <mxGeometry x="360" y="90" width="40" height="20" as="geometry" />
        </mxCell>
        <mxCell id="ICOZAlTJIjytX9kaOE55-41" value="&lt;font style=&quot;font-size: 18px&quot; color=&quot;#1a1a1a&quot;&gt;羽&lt;/font&gt;" style="text;html=1;strokeColor=none;fillColor=none;align=center;verticalAlign=middle;whiteSpace=wrap;rounded=0;" parent="1" vertex="1">
          <mxGeometry x="120" y="130" width="40" height="20" as="geometry" />
        </mxCell>
        <mxCell id="ICOZAlTJIjytX9kaOE55-42" value="&lt;font style=&quot;font-size: 18px&quot; color=&quot;#1a1a1a&quot;&gt;毛&lt;/font&gt;" style="text;html=1;strokeColor=none;fillColor=none;align=center;verticalAlign=middle;whiteSpace=wrap;rounded=0;" parent="1" vertex="1">
          <mxGeometry x="120" y="170" width="40" height="20" as="geometry" />
        </mxCell>
        <mxCell id="ICOZAlTJIjytX9kaOE55-43" value="&lt;font style=&quot;font-size: 18px&quot; color=&quot;#1a1a1a&quot;&gt;球&lt;/font&gt;" style="text;html=1;strokeColor=none;fillColor=none;align=center;verticalAlign=middle;whiteSpace=wrap;rounded=0;" parent="1" vertex="1">
          <mxGeometry x="120" y="210" width="40" height="20" as="geometry" />
        </mxCell>
        <mxCell id="ICOZAlTJIjytX9kaOE55-44" value="&lt;font style=&quot;font-size: 18px&quot; color=&quot;#1a1a1a&quot;&gt;拍&lt;/font&gt;" style="text;html=1;strokeColor=none;fillColor=none;align=center;verticalAlign=middle;whiteSpace=wrap;rounded=0;" parent="1" vertex="1">
          <mxGeometry x="120" y="250" width="40" height="20" as="geometry" />
        </mxCell>
        <mxCell id="ICOZAlTJIjytX9kaOE55-49" value="" style="rounded=0;whiteSpace=wrap;html=1;strokeColor=#B3B3B3;strokeWidth=2;" parent="1" vertex="1">
          <mxGeometry x="280" y="240" width="40" height="40" as="geometry" />
        </mxCell>
        <mxCell id="ICOZAlTJIjytX9kaOE55-50" value="" style="rounded=0;whiteSpace=wrap;html=1;strokeColor=#B3B3B3;strokeWidth=2;fillColor=#3399FF;" parent="1" vertex="1">
          <mxGeometry x="320" y="240" width="40" height="40" as="geometry" />
        </mxCell>
        <mxCell id="ICOZAlTJIjytX9kaOE55-51" value="" style="rounded=0;whiteSpace=wrap;html=1;strokeColor=#B3B3B3;strokeWidth=2;" parent="1" vertex="1">
          <mxGeometry x="360" y="240" width="40" height="40" as="geometry" />
        </mxCell>
        <mxCell id="ICOZAlTJIjytX9kaOE55-52" value="" style="rounded=0;whiteSpace=wrap;html=1;strokeColor=#B3B3B3;strokeWidth=2;" parent="1" vertex="1">
          <mxGeometry x="400" y="240" width="40" height="40" as="geometry" />
        </mxCell>
        <mxCell id="ICOZAlTJIjytX9kaOE55-53" value="&lt;font style=&quot;font-size: 18px&quot; color=&quot;#1a1a1a&quot;&gt;卖&lt;/font&gt;" style="text;html=1;strokeColor=none;fillColor=none;align=center;verticalAlign=middle;whiteSpace=wrap;rounded=0;" parent="1" vertex="1">
          <mxGeometry x="120" y="290" width="40" height="20" as="geometry" />
        </mxCell>
        <mxCell id="ICOZAlTJIjytX9kaOE55-54" value="&lt;font style=&quot;font-size: 18px&quot; color=&quot;#1a1a1a&quot;&gt;光&lt;/font&gt;" style="text;html=1;strokeColor=none;fillColor=none;align=center;verticalAlign=middle;whiteSpace=wrap;rounded=0;" parent="1" vertex="1">
          <mxGeometry x="120" y="330" width="40" height="20" as="geometry" />
        </mxCell>
        <mxCell id="ICOZAlTJIjytX9kaOE55-56" value="&lt;font style=&quot;font-size: 16px&quot;&gt;1&lt;/font&gt;" style="rounded=0;whiteSpace=wrap;html=1;strokeColor=#B3B3B3;strokeWidth=2;fillColor=#D1E8BA;" parent="1" vertex="1">
          <mxGeometry x="400" y="360" width="40" height="40" as="geometry" />
        </mxCell>
        <mxCell id="cJ8h4cXHUELAE3PKL5Mq-1" value="" style="endArrow=classic;html=1;exitX=1;exitY=0.5;exitDx=0;exitDy=0;strokeWidth=2;strokeColor=#FF6666;" parent="1" source="ICOZAlTJIjytX9kaOE55-41" edge="1">
          <mxGeometry width="50" height="50" relative="1" as="geometry">
            <mxPoint x="340" y="360" as="sourcePoint" />
            <mxPoint x="300" y="140" as="targetPoint" />
          </mxGeometry>
        </mxCell>
        <mxCell id="cJ8h4cXHUELAE3PKL5Mq-2" value="" style="endArrow=classic;html=1;strokeColor=#FF6666;strokeWidth=2;exitX=0.5;exitY=0;exitDx=0;exitDy=0;" parent="1" source="ICOZAlTJIjytX9kaOE55-49" edge="1">
          <mxGeometry width="50" height="50" relative="1" as="geometry">
            <mxPoint x="210" y="390" as="sourcePoint" />
            <mxPoint x="300" y="140" as="targetPoint" />
          </mxGeometry>
        </mxCell>
        <mxCell id="sGDlap2tLYUAG_V2Aexd-2" value="使用双向最大匹配算法进行粗分" style="rounded=0;whiteSpace=wrap;html=1;" vertex="1" parent="1">
          <mxGeometry x="120" y="670" width="210" height="60" as="geometry" />
        </mxCell>
        <mxCell id="sGDlap2tLYUAG_V2Aexd-3" value="构字典" style="rounded=0;whiteSpace=wrap;html=1;" vertex="1" parent="1">
          <mxGeometry x="120" y="585" width="210" height="60" as="geometry" />
        </mxCell>
        <mxCell id="sGDlap2tLYUAG_V2Aexd-9" value="" style="edgeStyle=orthogonalEdgeStyle;rounded=0;orthogonalLoop=1;jettySize=auto;html=1;" edge="1" parent="1" source="sGDlap2tLYUAG_V2Aexd-4" target="sGDlap2tLYUAG_V2Aexd-5">
          <mxGeometry relative="1" as="geometry" />
        </mxCell>
        <mxCell id="sGDlap2tLYUAG_V2Aexd-4" value="文本序列编码，输入GlobalPointer得到嵌套分词结果" style="rounded=0;whiteSpace=wrap;html=1;" vertex="1" parent="1">
          <mxGeometry x="120" y="750" width="210" height="60" as="geometry" />
        </mxCell>
        <mxCell id="sGDlap2tLYUAG_V2Aexd-5" value="处理嵌套分词结果，并结合粗分结果得到最终标签序列" style="rounded=0;whiteSpace=wrap;html=1;" vertex="1" parent="1">
          <mxGeometry x="120" y="840" width="210" height="60" as="geometry" />
        </mxCell>
        <mxCell id="sGDlap2tLYUAG_V2Aexd-10" value="&lt;font size=&quot;4&quot;&gt;了&lt;/font&gt;" style="text;html=1;strokeColor=none;fillColor=none;align=center;verticalAlign=middle;whiteSpace=wrap;rounded=0;" vertex="1" parent="1">
          <mxGeometry x="400" y="90" width="40" height="20" as="geometry" />
        </mxCell>
        <mxCell id="sGDlap2tLYUAG_V2Aexd-12" value="&lt;font size=&quot;4&quot;&gt;了&lt;/font&gt;" style="text;html=1;strokeColor=none;fillColor=none;align=center;verticalAlign=middle;whiteSpace=wrap;rounded=0;" vertex="1" parent="1">
          <mxGeometry x="120" y="370" width="40" height="20" as="geometry" />
        </mxCell>
      </root>
    </mxGraphModel>
  </diagram>
</mxfile>
